<?xml version="1.0" encoding="UTF-8"?>
<!DOCTYPE svg PUBLIC "-//W3C//DTD SVG 1.1//EN" "http://www.w3.org/Graphics/SVG/1.1/DTD/svg11.dtd">
<!-- Creator: CorelDRAW X7 -->
<svg xmlns="http://www.w3.org/2000/svg" xml:space="preserve" width="5.20833in" height="5.20833in" version="1.1" style="shape-rendering:geometricPrecision; text-rendering:geometricPrecision; image-rendering:optimizeQuality; fill-rule:evenodd; clip-rule:evenodd"
viewBox="0 0 5208 5208"
 xmlns:xlink="http://www.w3.org/1999/xlink">
 <defs>
  <style type="text/css">
   <![CDATA[
    .str0 {stroke:#FAD3DD;stroke-width:41.6654}
    .fil0 {fill:none}
   ]]>
  </style>
 </defs>
 <g id="Layer_x0020_1">
  <metadata id="CorelCorpID_0Corel-Layer"/>
  <g id="_415496504">
   <path class="fil0 str0" d="M1496 1556c103,44 205,88 307,134 -51,415 -65,783 -47,1200 -231,139 -462,278 -691,420 -64,-60 -485,-479 -506,-532 -23,-59 11,-762 40,-823 33,-71 475,-469 557,-537 114,45 227,90 340,138z"/>
   <path class="fil0 str0" d="M2409 3279c142,73 279,140 425,207 -19,251 -43,496 -73,746 -101,38 -675,222 -755,214 -69,-7 -695,-347 -736,-400 -42,-55 -186,-641 -205,-736 229,-142 460,-281 691,-420 217,143 423,266 653,389z"/>
   <path class="fil0 str0" d="M4089 3097c202,160 175,81 110,361 -12,51 -119,454 -133,476 -33,48 -600,428 -653,437 -33,5 -588,-122 -652,-139 30,-250 54,-495 73,-746 353,-193 626,-379 935,-635 108,81 214,163 320,246z"/>
   <path class="fil0 str0" d="M4066 3934c-33,48 -600,428 -653,437 -2,0 -5,0 -11,0 30,24 -28,82 -76,303 2,0 3,-1 4,-1 0,0 0,0 0,0 350,-149 652,-386 880,-683 -9,-4 -18,-8 -28,-12 -70,-28 -103,-34 -113,-51 -1,3 -2,6 -3,7z"/>
   <path class="fil0 str0" d="M3402 4371c-33,-4 -125,-22 -229,-45 -64,-12 -127,-25 -190,-39 -33,-7 -59,-15 -81,-21 -47,-11 -87,-20 -113,-27 -29,0 -62,6 -112,24 -127,46 -250,82 -374,114 -139,41 -263,72 -297,69 2,7 4,15 5,23 18,37 25,100 46,229 8,48 15,84 18,110 131,25 265,38 403,38 301,0 588,-61 848,-172 48,-221 106,-279 76,-303z"/>
   <path class="fil0 str0" d="M1994 4443c-38,-11 -130,-56 -237,-111 -16,-8 -34,-16 -52,-26 -8,-4 -22,-12 -40,-23 -183,-98 -373,-209 -395,-237 -2,-1 -6,-1 -11,0 -18,20 -73,22 -187,52 -67,21 -136,44 -183,60 310,330 721,563 1183,650 -14,-117 -34,-221 -61,-339 -5,-11 -10,-19 -17,-26z"/>
   <path class="fil0 str0" d="M1264 4037c-19,-37 -53,-151 -88,-279 -11,-35 -22,-73 -34,-116 -35,-129 -49,-203 -58,-250 0,0 0,0 0,0 -5,-19 -9,-35 -12,-49 -18,-62 -50,-65 -243,-263 -31,-33 -61,-66 -91,-99 -84,-87 -155,-165 -175,-195 -4,0 -8,2 -12,5 -11,20 -35,35 -91,93 -46,48 -89,90 -134,132 70,437 271,831 562,1141 10,-4 21,-8 34,-13 58,-20 108,-35 150,-46 81,-26 158,-48 187,-52 3,-3 4,-6 5,-9z"/>
   <path class="fil0 str0" d="M1176 3758c58,182 98,248 88,279 2,4 4,7 6,9 11,2 283,171 395,237 31,17 62,34 92,49 142,68 204,77 237,111 5,2 9,3 12,3 102,-22 200,-44 297,-69 186,-54 400,-123 458,-145 30,-250 54,-495 73,-746 -21,1 -157,-67 -326,-157 -33,-16 -66,-33 -99,-50 -118,-63 -230,-126 -340,-192 -170,-97 -303,-179 -313,-197 -231,139 -462,278 -691,420 1,7 4,19 7,33 0,0 0,0 0,0 4,13 7,28 11,48 0,1 0,1 1,1 21,92 57,236 92,366z"/>
   <path class="fil0 str0" d="M3173 4326c104,23 196,41 229,45 -21,-17 -84,-17 -221,-43 -3,-1 -5,-1 -8,-2 0,0 0,0 0,0zm-339 -840c-19,251 -43,496 -73,746 5,2 15,4 28,7 35,1 65,12 113,27 22,6 48,14 81,21 63,14 126,27 190,39 104,23 196,41 229,45 6,0 9,0 11,0 53,-9 620,-389 653,-437 1,-1 2,-4 3,-7 -13,-22 17,-63 59,-201 9,-33 19,-68 27,-101 26,-108 77,-341 89,-393 -2,-7 -6,-14 -12,-21 -153,-122 -304,-241 -461,-358 -1,-1 -1,-1 -2,-2 -13,26 -138,121 -293,230 -114,83 -228,160 -349,235 -149,96 -271,169 -293,170z"/>
   <path class="fil0 str0" d="M4247 3222c1,-2 354,-400 410,-462 1,-24 1,-48 2,-72 -1,-31 -1,-71 -2,-115 -10,-240 -59,-470 -140,-684 -139,-144 -347,-358 -349,-360 -152,83 -305,165 -458,248 16,27 33,169 46,341 14,136 21,267 22,404 5,168 4,305 -9,329 1,1 1,1 2,2 107,80 213,161 318,244 79,63 123,89 143,114 5,4 10,7 15,11z"/>
   <path class="fil0 str0" d="M4168 1529c104,99 198,196 296,300 18,20 35,37 50,52 -103,-267 -257,-509 -451,-714 3,10 6,19 9,29 35,112 66,220 96,333z"/>
   <path class="fil0 str0" d="M3710 1777c153,-83 306,-165 458,-248 0,-1 -58,-194 -109,-366 -259,-273 -589,-479 -959,-589 -159,34 -341,74 -367,80 1,6 2,13 3,19 14,36 12,98 27,222 22,186 46,263 34,304 0,5 1,10 2,15 22,1 123,55 236,118 0,0 0,0 0,0 107,57 208,116 307,180 13,8 23,14 30,19 6,4 21,14 39,27 49,33 97,67 146,102 76,55 147,107 153,117z"/>
   <path class="fil0 str0" d="M553 2542c0,-109 5,-214 15,-320 9,-134 20,-244 31,-267 -5,-4 -9,-8 -13,-11 -25,-9 -56,-46 -126,-105 -105,255 -162,533 -162,826 0,116 9,230 26,341 80,-75 182,-171 202,-192 9,-11 18,-18 25,-23 3,-7 5,-14 6,-23 -6,-33 -7,-120 -4,-226z"/>
   <path class="fil0 str0" d="M2441 564c213,60 273,55 295,109 -1,-6 -2,-13 -3,-19 26,-6 208,-46 367,-80 -197,-58 -406,-90 -622,-90 -95,0 -188,6 -279,18 101,25 221,56 242,62z"/>
   <path class="fil0 str0" d="M5032 4210c0,0 -1,0 -1,-1 0,1 1,1 1,1z"/>
   <path class="fil0 str0" d="M599 1955c33,-71 475,-469 557,-537 17,-56 189,-591 204,-609 14,-18 151,-91 298,-165 -542,220 -976,653 -1198,1195 70,59 101,96 126,105l13 11z"/>
   <path class="fil0 str0" d="M1156 1418c114,45 227,90 340,138 103,43 204,88 306,134 39,-58 915,-479 996,-476 0,0 0,0 1,0l-2 -15c12,-41 -12,-118 -34,-304 -15,-124 -13,-186 -27,-222 -22,-54 -82,-49 -295,-109 -21,-6 -141,-37 -242,-62 -189,24 -370,73 -541,142 -147,74 -284,147 -298,165 -15,18 -187,553 -204,609z"/>
   <path class="fil0 str0" d="M1496 1556c-113,-48 -226,-93 -340,-138 -82,68 -524,466 -557,537 -11,23 -22,133 -31,267 -7,103 -13,220 -15,320 -3,106 -2,193 4,226 0,4 1,7 2,10 1,2 2,4 4,8 20,30 91,108 175,195 130,136 289,294 327,329 229,-141 459,-281 690,-419 0,0 0,0 0,-1 -10,-18 -11,-187 -6,-392 0,0 0,0 0,0 1,-133 6,-264 15,-396 11,-213 25,-391 38,-412 0,0 0,0 0,0 -102,-46 -203,-91 -306,-134z"/>
   <path class="fil0 str0" d="M4210 3990c264,-344 427,-769 447,-1230 -56,62 -409,460 -410,462l-15 -11c6,7 10,14 12,21 10,36 -13,86 -45,226 -5,19 -23,88 -44,167 0,0 0,0 0,0 -8,33 -18,68 -27,101 -25,91 -49,175 -59,201 10,17 43,23 113,51l28 12 0 0z"/>
   <path class="fil0 str0" d="M3127 3316c121,-75 235,-152 349,-235 96,-71 193,-147 293,-230 13,-24 14,-161 9,-329 -1,-137 -8,-268 -22,-404 -13,-172 -30,-314 -46,-341 -11,-19 -246,-183 -299,-219l-69 -46c-99,-64 -200,-123 -307,-180l0 0c-113,-63 -214,-117 -236,-118 -1,0 -1,0 -1,0 -81,-3 -957,418 -996,476 1,0 1,0 1,0 -17,141 -30,277 -39,412 -9,132 -14,263 -15,396 -1,128 1,258 7,392 106,70 209,135 313,197 110,66 222,129 340,192 33,17 66,34 99,50 107,55 214,106 326,157 103,-57 200,-113 293,-170z"/>
  </g>
 </g>
</svg>
