<?xml version="1.0" encoding="UTF-8"?>
<!DOCTYPE svg PUBLIC "-//W3C//DTD SVG 1.1//EN" "http://www.w3.org/Graphics/SVG/1.1/DTD/svg11.dtd">
<!-- Creator: CorelDRAW X7 -->
<svg xmlns="http://www.w3.org/2000/svg" xml:space="preserve" width="5.20833in" height="5.20833in" version="1.1" style="shape-rendering:geometricPrecision; text-rendering:geometricPrecision; image-rendering:optimizeQuality; fill-rule:evenodd; clip-rule:evenodd"
viewBox="0 0 5208 5208"
 xmlns:xlink="http://www.w3.org/1999/xlink">
 <defs>
  <style type="text/css">
   <![CDATA[
    .str0 {stroke:#61d4b2;stroke-width:41.6654}
    .fil0 {fill:none}
    .rotate{animation-name:rotate_ball;animation-duration:5s;animation-iteration-count:infinite;animation-direction:alternate;animation-timing-function:ease;}
    @keyframes rotate_ball {
      from{transform:rotate(0)}
      to{transform:rotate(5deg)}
    }
   ]]>
  </style>
   <clipPath id="id0">
    <path d="M2691 439c1212,0 2194,983 2194,2195 0,1212 -982,2194 -2194,2194 -1212,0 -2194,-982 -2194,-2194 0,-1212 982,-2195 2194,-2195z"/>
   </clipPath>
 </defs>
 <g id="Layer_x0020_1">
  <metadata id="CorelCorpID_0Corel-Layer"/>
  <g>
  </g>
  <g style="clip-path:url(#id0)">
   <g class="rotate">
    <g id="_406258384">
     <path class="fil0 str0" d="M2885 1342c189,246 501,827 596,1120 29,91 -645,1228 -732,1245 -241,47 -1145,-3 -1397,-58 -95,-20 -600,-1248 -559,-1352 75,-187 477,-702 624,-867 222,-247 157,-223 491,-218 218,4 751,45 950,113l27 17z"/>
     <path class="fil0 str0" d="M4275 2622c90,280 152,547 196,839 9,58 -7,65 -36,121 -129,250 -280,484 -453,706 -31,39 -112,43 -160,55 -247,57 -466,93 -717,122 -130,-254 -235,-498 -342,-762 307,-399 517,-767 722,-1225 263,46 528,94 790,144z"/>
     <path class="fil0 str0" d="M3716 1016c34,12 316,112 327,120 48,38 304,478 358,582 10,18 90,177 90,183 4,43 -189,646 -216,721 -262,-50 -527,-98 -790,-144 -164,-431 -341,-771 -611,-1147 124,-158 249,-305 383,-454 153,44 307,90 459,139z"/>
     <path class="fil0 str0" d="M802 2376c129,453 281,824 513,1234 35,62 2,67 -47,148 -110,183 -216,367 -317,556 -104,-37 -643,-247 -700,-298 -62,-57 -393,-755 -384,-842 9,-87 177,-791 236,-810 6,-2 640,-50 646,-50l33 14 20 48z"/>
     <path class="fil0 str0" d="M2774 393c160,147 334,325 483,484 -134,149 -259,296 -383,454 -440,-103 -803,-136 -1255,-110 -91,-168 -184,-334 -277,-501 76,-55 554,-391 611,-394 92,-4 772,30 821,67z"/>
     <path class="fil0 str0" d="M2779 3744c102,250 203,481 326,721 -198,195 -390,359 -609,528 -42,32 -39,21 -99,19 -150,-6 -791,-50 -885,-124 -86,-67 -293,-284 -371,-365 -65,-69 -127,-138 -190,-209 123,-228 251,-448 385,-668 500,81 923,96 1427,57z"/>
     <path class="fil0 str0" d="M1363 759c86,154 172,307 256,462 -345,338 -599,674 -833,1097 -234,11 -464,28 -698,47 -12,-99 -63,-693 -47,-752 22,-83 483,-687 554,-712 68,-23 698,-200 744,-173l24 31z"/>
     <path class="fil0 str0" d="M1306 -85c112,8 223,14 335,18 93,164 165,258 293,395 -65,42 -603,397 -616,399 -232,28 -511,110 -735,179 -27,-172 -55,-270 -124,-430 160,-196 294,-378 436,-589 137,10 274,19 411,28z"/>
     <path class="fil0 str0" d="M42 1665c2,82 41,719 40,723 -36,120 -85,236 -120,370 -39,145 -69,287 -96,435 -143,-54 -260,-92 -410,-125 -24,-65 -266,-689 -265,-696 0,-3 369,-649 371,-651 5,-3 212,-30 242,-37 30,-7 212,-68 217,-68l16 8 5 41z"/>
     <path class="fil0 str0" d="M959 4321c201,218 365,385 579,589 -116,109 -206,205 -309,326 -222,-50 -446,-108 -668,-149 -62,-11 -31,1 -72,-69 -33,-53 -355,-562 -352,-572 54,-182 81,-238 115,-430 251,125 437,199 699,298z"/>
     <path class="fil0 str0" d="M4767 2012c22,8 214,68 216,70 8,7 260,691 259,705 0,2 -276,606 -301,660 -157,10 -308,30 -464,52 -39,-258 -102,-580 -186,-828 -26,-75 3,-101 28,-175 67,-197 120,-394 172,-595 92,38 183,76 276,111z"/>
     <path class="fil0 str0" d="M3551 66c113,11 222,20 335,28 113,232 228,415 367,631 -80,137 -145,267 -210,411 -268,-103 -493,-164 -758,-252 -48,-16 -334,-320 -380,-364 -199,-190 -179,-83 41,-288 74,-69 133,-134 198,-211 136,15 271,31 407,45z"/>
     <path class="fil0 str0" d="M3622 4387c117,-25 229,-51 345,-81 29,156 57,314 96,467 12,44 1,30 -45,82 -40,45 -446,480 -459,486 -18,9 -739,61 -750,56 -3,-1 -203,-235 -227,-260 -38,-41 -76,-82 -114,-123 227,-174 408,-329 615,-527 36,-34 50,-26 98,-30 150,-18 293,-41 441,-70z"/>
     <path class="fil0 str0" d="M2444 5014c40,1 49,27 83,63 98,105 192,208 282,320 -175,145 -310,267 -447,450 -250,-17 -498,-36 -748,-54 -110,-215 -233,-372 -385,-557 34,-41 281,-318 309,-326 3,0 442,70 493,76 134,16 279,24 413,28z"/>
     <path class="fil0 str0" d="M4739 3465c68,-8 134,-14 202,-18 41,206 84,409 162,605 23,57 19,24 -27,95 -35,53 -367,557 -376,561 -5,3 -199,11 -227,14 -136,16 -270,44 -404,74 -14,-53 -106,-472 -102,-490 1,-4 191,-259 213,-292 106,-159 201,-323 286,-494 18,-35 35,-25 86,-32 63,-8 125,-16 187,-23z"/>
     <path class="fil0 str0" d="M4963 819l164 336 165 337c-151,224 -217,335 -309,590 -63,-18 -466,-157 -492,-181 -2,-2 -155,-305 -176,-342 -84,-147 -174,-284 -272,-423 65,-144 130,-274 210,-411 270,65 436,75 710,94z"/>
    </g>
   </g>
  </g>
  <path class="fil0 str0" d="M2691 439c1212,0 2194,983 2194,2195 0,1212 -982,2194 -2194,2194 -1212,0 -2194,-982 -2194,-2194 0,-1212 982,-2195 2194,-2195z"/>
 </g>
</svg>
